<svg width="33" height="34" viewBox="0 0 33 34" fill="none" xmlns="http://www.w3.org/2000/svg">
<ellipse cx="15.576" cy="17.1658" rx="15.1346" ry="16.2586" fill="white"/>
<path d="M16.576 0.433594C7.98751 0.433594 1 7.94002 1 17.1664C1 26.3928 7.98751 33.8992 16.576 33.8992C25.1646 33.8992 32.1521 26.3928 32.1521 17.1664C32.1521 7.94002 25.1646 0.433594 16.576 0.433594ZM16.576 27.4635C15.011 27.4635 13.7664 26.7507 13.5994 25.2448C13.595 25.1998 13.5994 25.1543 13.6125 25.1113C13.6255 25.0682 13.6469 25.0286 13.6752 24.9951C13.7034 24.9615 13.738 24.9347 13.7765 24.9165C13.8151 24.8983 13.8568 24.889 13.8989 24.8892H19.2494C19.292 24.8889 19.3341 24.8983 19.373 24.9168C19.4119 24.9354 19.4467 24.9626 19.475 24.9967C19.5034 25.0308 19.5246 25.071 19.5374 25.1146C19.5501 25.1582 19.5541 25.2042 19.549 25.2496C19.358 26.7274 18.1247 27.4635 16.576 27.4635ZM23.9148 23.6021H9.23733C8.3507 23.6021 7.88941 22.3954 8.39937 21.7518C9.62224 20.196 10.4864 19.542 10.4864 15.2518C10.4864 11.3204 12.4139 9.92543 14.006 9.24486C14.1156 9.19581 14.2143 9.12265 14.296 9.0301C14.3776 8.93754 14.4403 8.82764 14.48 8.70748C14.7563 7.72201 15.5381 6.86928 16.576 6.86928C17.614 6.86928 18.3943 7.72201 18.6728 8.70828C18.7128 8.82843 18.7756 8.93828 18.8574 9.03082C18.9391 9.12336 19.038 9.19653 19.1476 9.24566C20.7359 9.92463 22.6672 11.322 22.6672 15.2526C22.6672 19.5428 23.5306 20.1968 24.7535 21.7526C25.2582 22.3954 24.7962 23.6021 23.9148 23.6021Z" fill="#3683F0"/>
<ellipse cx="23.1349" cy="11.2048" rx="3.53143" ry="3.79367" fill="#FF2C55"/>
</svg>
