<svg width="30" height="33" viewBox="0 0 30 33" fill="none" xmlns="http://www.w3.org/2000/svg">
<ellipse cx="15" cy="16.183" rx="15" ry="16.183" fill="#3683F0"/>
<path d="M22.6777 19.9502L19.25 16.5225C18.5469 15.8486 17.5508 15.7021 16.7305 16.1123L13.625 13.0068V11.1611L9.875 8.34863L8 10.2236L10.8125 13.9736H12.6289L15.7344 17.1084C15.3535 17.9287 15.4707 18.9248 16.1445 19.5986L19.5723 23.0557C20.0117 23.4658 20.6855 23.4658 21.125 23.0557L22.6777 21.5029C23.0879 21.0635 23.0879 20.3896 22.6777 19.9502ZM17.6973 14.9404C18.5469 14.9404 19.3086 15.2627 19.8945 15.8486L20.4805 16.4346C20.9199 16.2295 21.3594 15.9365 21.7402 15.5557C22.8242 14.4717 23.2051 12.9482 22.8535 11.5713C22.7949 11.3076 22.4727 11.2197 22.2676 11.3955L20.0996 13.5928L18.1074 13.2412L17.7852 11.249L19.9531 9.08105C20.1582 8.87598 20.041 8.55371 19.7773 8.49512C18.4004 8.14355 16.877 8.52441 15.793 9.6084C14.9434 10.4287 14.5625 11.542 14.5625 12.626L16.9941 15.0283C17.2285 14.9697 17.4629 14.9404 17.6973 14.9404ZM14.6504 17.3428L13.0098 15.7021L8.52734 20.1553C7.79492 20.8877 7.79492 22.0889 8.52734 22.8213C9.25977 23.5537 10.4609 23.5537 11.1934 22.8213L14.7969 19.1885C14.5918 18.6025 14.5039 17.9873 14.6504 17.3428ZM9.875 22.1768C9.46484 22.1768 9.17188 21.8838 9.17188 21.4736C9.17188 21.0928 9.46484 20.7705 9.875 20.7705C10.2559 20.7705 10.5781 21.0928 10.5781 21.4736C10.5781 21.8838 10.2559 22.1768 9.875 22.1768Z" fill="white"/>
</svg>
